<?xml version="1.0" standalone="no"?>
<svg viewBox="0 0 200 200" xmlns="http://www.w3.org/2000/svg">
  <path fill="#F1C21B" d="M41.7,-61.3C53.7,-57.1,62.9,-45,66.2,-32C69.4,-18.9,66.8,-4.8,62.8,7.7C58.9,20.1,53.7,31.1,46.2,40.5C38.7,49.9,29,57.8,17.2,63.4C5.4,69,-8.4,72.3,-22.4,70.7C-36.3,69.1,-50.5,62.5,-57.7,51.5C-64.9,40.5,-65.1,24.9,-66.4,10.1C-67.6,-4.7,-69.9,-18.8,-65,-29.7C-60,-40.5,-47.9,-48,-35.8,-52.2C-23.8,-56.4,-11.9,-57.3,1.5,-59.6C14.8,-61.8,29.6,-65.5,41.7,-61.3Z" transform="translate(100 100)" />
</svg>
